<?xml version="1.0" encoding="UTF-8"?>
<svg id="Capa_2" data-name="Capa 2" xmlns="http://www.w3.org/2000/svg" viewBox="0 0 342.25 363.46">
  <defs>
    <style>
      .cls-1 {
        fill: #952867;
      }

      .cls-2 {
        fill: #fff;
      }

      .cls-3 {
        fill: #e72185;
      }

      .cls-4 {
        fill: #8f2a67;
      }

      .cls-5 {
        fill: #5a1c51;
        stroke-width: 7px;
      }

      .cls-5, .cls-6 {
        stroke: #fff;
        stroke-miterlimit: 10;
      }

      .cls-7 {
        fill: #f8fbf9;
      }

      .cls-8 {
        fill: #e71c84;
      }

      .cls-6 {
        fill: #781752;
        stroke-width: 12px;
      }

      .cls-9 {
        fill: #e01883;
      }

      .cls-10 {
        fill: #fef6fa;
      }

      .cls-11 {
        fill: #fffdf9;
      }

      .cls-12 {
        fill: #e72286;
      }

      .cls-13 {
        fill: #e31482;
      }

      .cls-14 {
        fill: #972662;
      }
    </style>
  </defs>
  <g id="Capa_1-2" data-name="Capa 1">
    <g>
      <g>
        <path class="cls-6" d="M51.61,16.59c-10.87,49.93-16.98,77.83-20.85,95.44-10.73,48.91-14.75,66.8-9.27,91.73,5.44,24.72,16.97,41.54,25.02,53.28,21.28,31.04,46.76,48.16,82,71.35,19.35,12.74,36.23,22.06,48.18,28.26,10.34-5.79,25.77-14.71,44.01-26.41,48.69-31.22,73.42-47.44,92.48-77.5,4.88-7.7,15.53-24.83,20.73-49.49,4.83-22.92,2.61-41.29-10.88-102.07-5.11-23.04-11.54-50.8-19.4-82.27-84.01-.77-168.02-1.54-252.03-2.32Z"/>
        <path class="cls-5" d="M321.13,102.11c-1.45-6.55-3.02-13.49-4.68-20.77-16.1-7.96-32.43-13.12-32.43-13.12-12.89-4.07-17.99-4.37-30.85-9.3-12.02-4.61-18.02-6.91-25.3-12.41-2.4-1.81-14.16-10.94-22.44-27.55-.18,0-.35,0-.53,0-.17-.33-.34-.65-.51-.99-2.04-4.21-3.37-7.91-4.22-10.59-1.63,2.08-4.03,5.39-6.37,9.79-3.48,6.54-3.61,9.43-6.69,14.2-1.41,2.17-4.65,6.62-9.79,9.96-8.24,5.34-13.28,2.59-21.71,6.86-3.5,1.78-8.18,5.06-12.54,11.7-1.83-.58-4.11-1.21-6.79-1.77-6.36-1.37-15.03-2.33-25.07-.8-11.63,1.77-20.34,6.16-25.48,9.28-4.96-5.5-9.93-11-14.89-16.49-.13-3.2-.25-6.41-.38-9.61-.17,.07-.37,.15-.59,.24,0-.12,0-.25-.01-.37-2.33,.91-9.51,4.06-14.36,12.05-4.34,7.15-4.35,14.1-4.19,16.87-3.33-2.14-7.12-4.87-11.07-8.33-.02,.11-.05,.22-.07,.33-1.67-1.44-3.36-2.99-5.06-4.7-5.35-5.36-9.32-10.65-12.2-15.09-1.54,6.78-2.81,15.43-2.63,25.46,.3,16.48,4.4,29.7,7.87,38.27-3.63-2.95-7.28-5.91-10.96-8.87-3.5-2.82-7-5.62-10.49-8.4,.16,6.55,.86,14.01,2.56,22.11,4.31,20.58,13.14,36.14,20.12,46.13-3-.92-6.01-1.83-9.01-2.75,0,.02,0,.03,0,.05-5.28-1.61-10.55-3.22-15.83-4.83,1.3,6.73,3.85,16.24,9.28,26.58,8.55,16.27,19.56,25.68,28.69,33.33,1.76,1.48,3.74,3.07,5.93,4.73l.2-.18c9.64,7.36,23.58,16.2,42.15,23.01-2.51,4.99-6.6,11.76-13.08,18.56-6.73,7.07-13.58,11.58-18.56,14.34-2.12-.33-4.07,.03-5.67,.79,3.66,4.5,7.46,8.7,11.41,12.69,1.99-.02,3.98-.03,5.97-.05-.51,1.27-1.08,2.69-1.68,4.24,7.23,6.85,14.98,13.14,23.39,19.34,.71-.3,1.43-.6,2.18-.91-.14,.74-.27,1.47-.41,2.21,9.34,6.8,19.49,13.55,30.61,20.87,2.49-3.86,4.98-7.71,7.47-11.57-.04,3.41-.52,8.04-2.37,13.16-.17,.48-.36,.94-.55,1.4,10.77,6.99,20.7,12.89,29.38,17.77,4.47-3.93,7.82-9.2,10.41-13.26,4.76-7.49,7.38-14.46,8.86-19.41,2.81,5.83,5.67,12.72,8.1,20.62,1.33,4.31,2.37,8.41,3.2,12.28,8.45-4.95,18.4-10.98,29.38-18.02,1.56-1,3.09-1.98,4.6-2.95l.34-14.86c1.8,3.27,3.64,7,5.38,11.18,8.42-5.42,16.05-10.4,23.02-15.12-.03-.95-.06-1.89-.09-2.84,.34,.74,.67,1.48,1.01,2.22,7.41-5.04,14.08-9.79,20.12-14.47,1.01-4.26,1.81-9.42,.71-15.58-1.29-7.17-4.6-12.6-7.17-16.03,11-6.01,27.14-16.52,42.51-33.85,11.98-13.51,19.74-26.92,24.74-37.53,1.63-18.55-1.9-39.95-12.84-89.23Z"/>
      </g>
      <path class="cls-2" d="M29.03,73.53c-.41,.12,1.13,6.58,2.29,11.43,1.72,7.19,2.86,11.96,5.07,18.03,1.59,4.36,4.01,10.17,7.71,16.76-1.19-4.28-3-10.6-5.36-18.21-3.31-10.68-9.02-28.2-9.7-28Z"/>
      <path class="cls-2" d="M23.69,124.08c4.13,5.69,7.62,10.68,10.4,14.74,2.67,3.9,6.13,8.97,10.47,15.83,2.09,3.3,3.8,6.11,5.04,8.17-3-2.81-5.31-5.31-6.9-7.13-3.07-3.5-10.29-12.21-16.33-25.3-1.22-2.64-2.11-4.86-2.68-6.32Z"/>
      <path class="cls-2" d="M82.05,217.53c-7.53-4.23-13.49-8.35-17.79-11.57-5.73-4.29-11.63-8.71-17.96-15.91-5.23-5.95-8.75-11.53-10.98-15.49-1.45-.23-2.89-.45-4.34-.68,.61,1.38,1.53,3.28,2.81,5.45,1.87,3.16,4.33,6.54,9.2,11.48,1.58,1.6,7.2,7.21,15.89,13.53,3.29,2.4,7.99,5.79,14.78,9.31,3.33,1.73,6.22,3,8.39,3.89Z"/>
      <g>
        <path class="cls-14" d="M200.95,48.51c3.84,5.39,9.05,11.7,15.96,18,5.25,4.79,10.38,8.55,14.94,11.49,3.92,6.45,11.31,16.73,23.81,25.6,15.37,10.9,30.55,14.06,38.43,15.13-2.83-6.09-5.66-12.17-8.49-18.26-4.85-3.19-9.7-6.38-14.56-9.57-3.25-2.41-6.68-4.84-10.28-7.28-3.85-2.61-7.63-5.03-11.3-7.28,6.45,2.32,12.06,4.37,16.62,6.05,13.54,4.98,17.55,6.58,22.46,8.97,5.06,2.46,9.07,4.8,11.72,6.42,1.84,9.94,2.79,21.3,1.79,33.7-4.53,56.06-45.52,92.42-58.98,103.4-13.25,2.05-26.23-2.75-33.57-12.64-6.5-8.75-6.33-18.44-6.13-21.7,5.52,2.48,12.15,4.93,19.79,6.77,15.65,3.77,29.35,3.49,39.06,2.43,2.81-2.13,5.62-4.26,8.43-6.38-2.43-1.7-4.85-3.4-7.28-5.11-8.98-3.15-17.96-6.3-26.94-9.45-6.43-6.39-14.39-15.55-21.57-27.83-7.72-13.19-11.92-25.45-14.3-34.6,4.28,3.02,9.29,6.1,15.06,8.94,14.05,6.91,27.19,9.7,37.02,10.85,10.81,4.26,21.62,8.51,32.43,12.77l-6.64-23.62c-10.94-3.32-21.87-6.64-32.81-9.96-3.91-2.59-9.23-6.42-15.06-11.62-5.02-4.47-9.82-8.76-14.81-15.7-6.49-9.04-9.45-17.24-10.47-20.3-2.07-6.2-2.84-11.32-3.32-14.55-.85-5.77-1.05-10.79-1.02-14.68Z"/>
        <path class="cls-8" d="M312.27,109.78c-2.72-4.11-5.59-7.11-7.74-9.11l-4.26-2.89c-3.39-1.42-7.3-2.82-11.68-3.99-6.57-1.76-12.54-2.57-17.55-2.9,2.68,1.98,5.82,4.67,8.94,8.23,3.96,4.52,6.58,8.96,8.3,12.45-2.91-2.33-7.46-5.79-13.37-9.48-8.12-5.07-9.97-5.06-24.63-13.06-9.25-5.05-13.89-7.56-18.42-11.03,0,0-10.21-7.82-18.41-10.76-.23-.08-.69-.23-1.03,0-.78,.51-.3,2.55-.02,3.62,3.46,13.27,7.47,20.3,7.47,20.3,3.4,5.97,6.02,10.57,10.64,16.94,7.56,10.42,10.85,14.44,15.15,17.28,1.53,1.01,4.21,2.6,4.69,2.88,3.96,2.34,7.16,4.02,11.52,6.25,4.02,2.05,9.14,4.62,15.19,7.55-1.66,.74-4.07,1.71-7.09,2.53-5.92,1.62-10.73,1.61-17.3,1.6-5.66-.01-8.49-.03-11.81-.57-4.11-.67-20.9-3.95-24.72-5.46-.21-.08-.82-.34-1.24-.06-.77,.52-.29,2.52-.06,3.42,3.38,13.05,9.3,25.28,9.3,25.28,3.11,6.42,4.22,8.72,6.38,12.13,1.76,2.77,3.33,5.22,5.94,7.91,1.55,1.6,4.12,4.12,9.62,7.19,4.38,2.45,10.99,5.65,19.83,8.26-5.05,2.67-9.39,3.87-12.4,4.47-2.11,.42-2.43,.32-15.78,1.09-5.59,.32-6.37,.46-11.09,.44-2.66-.01-4.03-.02-5.74-.22-5.79-.68-7.29-1.02-7.29-1.02-1.47-.33-3.06-.78-3.64-.05-.29,.36-.22,.85-.18,1.16,.86,5.7,4.72,10.34,4.72,10.34h0c6.96,8.36,15.06,11.74,15.06,11.74,2.43,1.01,7.22,2.96,13.53,2.68,2.46-.11,4.37-.52,5.94-.9,8.75-2.14,17.85-6.14,23.42-8.8-3.14,5.62-7.52,12.34-13.53,19.28-5.81,6.7-11.62,11.85-16.6,15.7,3.29-1.36,7.77-3.37,12.89-6.13,6.92-3.73,20.34-11.09,33.74-25.28,3.88-4.11,14.2-15.59,22.47-33.36,3-6.46,7.56-16.43,9.7-30.47,.9-5.92,2.56-20.29-1.36-36.77-2.36-9.91-5.49-15.36-7.49-18.38Z"/>
      </g>
      <g>
        <path class="cls-2" d="M65.37,68.93c1.37,1.09,2.74,2.18,4.1,3.28,.85,1.71,2.02,4.57,2.25,8.18,.47,7.3-3.47,8.47-3.65,17.07-.05,2.28,.16,5.61-1.37,9.83-.43,1.18-.88,2.13-1.2,2.75-.66-5.28-1.14-11.09-1.28-17.36-.19-8.78,.32-16.76,1.15-23.74Z"/>
        <path class="cls-13" d="M66.72,80.46c-.86,4.07-.85,7.28-.83,12.47,.01,3.73,.24,7.01,.37,9.06,.15,2.15,.31,3.96,.44,5.3,.35-.92,.89-2.32,1.58-4,2.22-5.38,2.98-6.33,4.55-10.39,1.16-3.02,1.59-4.71,2.38-7.78,.95-3.74,.98-4.88,.55-6.05-.55-1.5-1.65-2.59-3.43-4.36-1.13-1.12-2.14-1.95-2.86-2.5-.93,2-2.02,4.79-2.75,8.25Z"/>
      </g>
      <path class="cls-8" d="M61.71,124.59c-1.44,2.98-5.74,12.81-3.09,25.31,2.54,12,9.93,19.1,12.45,21.33-3.25-6.21-7.17-15.53-8.85-27.4-1.05-7.42-.97-13.98-.51-19.23Z"/>
      <g>
        <path class="cls-12" d="M112.19,249.67c.97-.29,1.85,.03,2.56,.3,4.73,1.77,7.89,2.96,10.04,4.71,0,0,1.79,1.46,3.51,2.6h0s4.29,3.28,9.01,10.45c.38,.58,.5,1.17,.51,1.23,0,0,.16,.8-.1,1.71-2.86,9.98-17.02,24.6-17.02,24.6-1.29,1.27-2.61,2.62-3.93,4.07-2.46,2.69-4.62,5.34-6.51,7.87,2.91-6.17,6.12-14.74,7.75-25.3,1.04-6.72,1.2-12.74,1-17.78-3.8,3.25-8.42,6.75-13.91,10.11-3.98,2.44-7.79,4.42-11.3,6.04,3.25-2.73,5.16-5.36,6.25-7.09,2.97-4.7,6.37-13.12,9.38-20.36,.35-.84,1.14-2.67,2.76-3.15Z"/>
        <path class="cls-1" d="M101.9,270.38c6.31-10.6,6.41-20.22,10.91-20.87,.8-.12,2.69,.73,6.45,2.43,3.25,1.46,4.98,2.24,6.13,3.19,4.19,3.46,3.23,11.25,2.81,14.68-1.93,15.67-13.65,31.81-17.94,37.4,2.81-5.97,5.92-14.22,7.6-24.38,1.17-7.12,1.36-13.48,1.15-18.7-3,2.54-6.42,5.18-10.28,7.79-5.27,3.57-10.32,6.38-14.88,8.59,2.25-2.17,5.3-5.51,8.05-10.12Z"/>
        <path class="cls-2" d="M126.66,256.12c-.59-.51-1.51-1.3-2.69-2.21-3.03-2.35-5.01-3.43-7.53-5.11-1.55-1.03-3.78-2.61-6.38-4.79-1.02,5.86-2.67,10.42-4.02,13.53-3.78,8.73-8.92,14.75-13.51,20.13-2.53,2.96-4.77,5.3-6.36,6.89,1.44-.5,3.54-1.36,5.85-2.8,4.63-2.89,7.6-6.58,14.4-17.64,2.17-3.54,4.81-7.94,7.72-13.09,1.9,.88,3.9,1.76,6,2.62,2.24,.91,4.42,1.73,6.52,2.46Z"/>
      </g>
      <path class="cls-2" d="M140.05,242.8c-1.78-3.08-4.7-7.48-9.19-11.87-7.34-7.19-12.03-7.64-21.96-14.17-6.56-4.31-15.38-10.11-21.57-20.04-5.3-8.5-6.82-17.05-7.28-22.72,1.02,3.9,4.37,14.61,14.68,23.11,8.13,6.71,16.6,8.74,20.68,9.45-.39-1.61-2.4-10.5,2.68-15.96,2.25-2.41,5.08-3.3,9.19-4.6,3.72-1.17,7.89-2.48,12.79-1.87,6.66,.82,11.09,4.72,17.85,10.68,4.09,3.6,7.09,6.98,9.04,9.35-4.46-.05-8.92-.11-13.38-.16,2.08,2.11,4.85,5.25,7.53,9.45,2.05,3.22,6.12,9.74,7.76,19.22,1.14,6.59,.73,12.46-.1,17.03-2.62,1.54-5.73,3.65-8.94,6.51-3.16,2.82-5.59,5.64-7.4,8.04,.9,7.2,1.09,17-1.93,27.9-.81,2.94-1.77,5.64-2.8,8.1,.71-5.17,1.14-11.43,.74-18.5-.27-4.78-.89-9.11-1.63-12.9,1.15-.13,2.3-.26,3.45-.38-2.03-4.39-5.16-10.01-9.96-15.83-5.18-6.28-10.53-10.64-14.68-13.53,4.81,1.23,9.62,2.47,14.43,3.7Z"/>
      <path class="cls-9" d="M162.05,290.07c.14-3.88,.16-8.01,0-12.37-.13-3.67-.37-7.16-.68-10.47,7.82,5.31,13.64,10.64,17.7,14.81,8.75,8.98,11.57,14.89,12.47,16.91,1.37,3.06,2.19,5.76,2.68,7.69-3.76-5.43-8.47-11.45-14.3-17.62-4.76-5.03-9.44-9.28-13.79-12.85-.17,2-.55,4.48-1.36,7.23-.8,2.69-1.8,4.92-2.73,6.67Z"/>
      <path class="cls-3" d="M145.8,172.34c7.39-6.5,12.04-13.11,14.81-17.74,2.3-3.85,5.93-10.03,7.87-18.87,1.06-4.83,1.17-8.36,1.36-14.84,.11-3.63,0-5.52-.67-7.72-.53-1.76-1.77-5.85-5.49-8.36-2.44-1.64-4.93-1.93-9.32-2.43-2.2-.25-4.05-.28-5.36-.26,5.29-1.68,11.49-4.1,18.13-7.66,5.4-2.89,9.99-5.95,13.79-8.81,1.68,3.77,4.63,9.23,9.7,14.68,4.81,5.16,9.75,8.4,13.28,10.34-2.85-.12-6.73-.58-11.11-2.04-3.82-1.27-6.85-2.92-9.06-4.34-.35,3.29-.51,8.1,.64,13.67,1.17,5.67,3.12,9.27,5.23,13.52,1.57,3.16,7.53,15.37,11.67,28.38,0,0,2.31,7.28,2.88,21.15,.1,2.44,.16,6.83-2.04,7.91-.72,.35-1.45,.24-1.78,.19-8.67-1.43-15.01-4.53-15.01-4.53-3.07-1.5-7.44-3.46-13.09-5.43,1.33,6.96,3.71,11.89,5.69,15.15,1.08,1.77,10.31,16.65,13.65,21.11,.19,.25,.71,.93,.83,1.91,.22,1.71-.91,3.15-1.28,3.64-1.69,2.24-6.8,10.12-13.91,21.13,.26-3.7,.2-9.62-1.98-16.4-1.72-5.34-4.17-9.39-6.11-12.09,1.6,.14,3.38,.38,5.3,.78,2.04,.42,3.86,.94,5.46,1.48-1.06-4.78-3.6-13.23-10.09-21.83-6.57-8.7-14.12-13.48-18.45-15.8,2.44-.8,5.85-2.16,9.51-4.56,3.53-2.32,8.79-5.77,11.74-12.38,2.47-5.53,2.23-10.8,1.79-13.89-1.08,2.23-2.42,4.57-4.12,6.93-7.7,10.73-18.23,15.72-24.48,18Z"/>
      <g>
        <path class="cls-3" d="M187.45,62.87c-2.55,1.01-4.56,.37-8.17,.51-8.36,.32-9.34-.51-12.43,.51-3.83,1.27-6.14,3.82-8.85,6.81-3.95,4.35-4.16,6.65-7.15,10.89-3.15,4.47-6.34,6.8-12.43,11.23-4.25,3.1-10.53,7.1-18.89,10.55-1.02-.91-2.04-1.82-3.06-2.72-6.97,9-10.94,13.2-11.91,12.6-.44-.27-.27-1.52,.51-3.74-3.2,3.67-6.99,8.69-10.38,15.15-3.15,5.98-5.08,11.52-6.3,16,1.15-9.29,4.2-29.95,11.06-44.09,2.68-5.51,5.45-9.03,9.21-9.52,3.13-.41,5.89,1.42,7.47,2.71,.45-.93,1.27-2.38,2.72-3.74,1.22-1.15,3.54-3.31,6.76-3.08,3.74,.27,5.87,3.59,6.13,4.01,1.11-.88,2.31-1.93,3.53-3.19,1.7-1.76,3.03-3.49,4.04-5.02-5.19-1.29-13.87-2.77-24.37-1.23-6.79,1-17.04,2.53-25.87,10.55-8.12,7.37-10.64,16.36-12.26,22.13-4.1,14.63-1.24,26.93,.34,33.36,2.5,10.15,6.63,17.82,9.7,22.64-.06,.55-.18,1.21-.39,1.93-.2,.66-.43,1.23-.66,1.71,.27,.27,.65,.59,1.15,.85,1.4,.71,2.78,.45,3.27,.34,.02-.38,.12-.99,.54-1.53,.84-1.08,2.37-1.09,2.9-1.09,2.69-.01,4.7,2.81,8.04,6.57,1.52,1.71,3.81,4.18,6.87,7.05,3.25-1.35,7.68-3.33,12.79-6.03,6.61-3.5,12.76-6.75,19.28-12.26,4.17-3.52,10.56-9.03,15.57-18.36,2.17-4.05,6.26-11.9,5.75-22.11-.22-4.39-.35-6.89-2.17-9.06-5.02-5.98-17.46-2.96-28.6-.26-6.23,1.51-14.7,4.13-24.31,8.93-2.54,1.62-5.07,3.24-7.61,4.85,.6-.88,1.45-2.08,2.55-3.45,2.89-3.57,5.84-6.23,8.81-8.55,5.57-4.36,10.78-7.23,14.43-9.19,8.88-4.78,12.34-6.22,22.6-11.36,12.71-6.37,16.99-8.96,20.3-11.11,8.78-5.69,13.62-11.57,14.81-13.02,1.68-2.06,3.8-4.95,5.86-8.71-.27,.14-.67,.34-1.18,.54Zm-87.56,92.72c0-.35,.02-1.38,.09-2.72,.08-1.52,.18-3.6,.54-5.95,.13-.81,.52-3.21,1.31-5.67,2.25-7.05,6.79-11.69,8.59-13.49,1.92-1.93,3.73-3.32,5.07-4.25,3.21-2.09,6.2-3.49,8.7-4.45,2.48-.95,4.21-1.61,6.67-1.85,2.06-.21,5.97-.6,9.85,1.7,3.1,1.84,4.57,4.45,4.85,4.94,2.13,3.9,1.51,7.81,.77,12.43-.56,3.51-1.57,6.09-2.13,7.38-1.09,2.52-2.35,4.5-3.4,5.94,.28-3.81,.28-7.02,.21-9.4-.2-6.75-1.01-8.32-1.49-9.11-.33-.55-2.48-3.96-6.55-4.83-1.83-.39-3.3-.1-4.55,.15-4.02,.83-6.95,3.06-8.72,4.76,.96-.05,2.39-.1,4.13-.01,3.58,.17,5.78,.27,7.95,1.55,.9,.53,2.38,1.6,3.66,3.78-2.28,.03-4.56,.06-6.85,.09,.04,1.68,.06,7.59-2.6,12.68-1.24,2.38-2.92,4.31-2.92,4.31-1.27,1.46-2.53,2.52-3.54,3.26,3.1-.64,5.06-1.95,6.1-2.78,1.49-1.2,2.34-2.43,3.86-4.62,1.46-2.1,2.48-3.95,3.15-5.23,.37,1.84,.75,4.96-.17,8.6-.23,.89-.62,2.39-1.53,4-3.35,5.91-10.33,7.37-11.4,7.57-4.36,.85-7.99-.16-9.87-.85,2.21,2.87,4.43,5.73,6.64,8.6-1.65,0-2.97-.02-3.85-.02-.19,0-.59,0-1.09-.13-.54-.14-.94-.37-1.23-.56-1.25-.81-2.28-2.04-2.34-2.12-1.85-2.24-2.38-3.05-2.38-3.05-.13-.2-.39-.6-.79-.64-.45-.05-.82,.4-1.22,.86-1.5,1.72-2.27,2.58-3.3,2.83-.53,.13-1,.06-1.26,.02-.93-.13-1.56-.57-1.96-.85-1.91-1.35-4.16-4.84-4.27-5-.47-.67-1.09-1.68-1.56-3.01-.18-.5-.39-1.21-.62-2.68-.19-1.21-.44-2.87-.41-5.14,.08-6.09,2.47-10.9,2.47-10.9,2.86-5.77,7.48-8.79,9.59-9.98-1.4,2.54-2.93,5.96-3.91,10.17-1.86,7.99-.8,14.78,.13,18.64,.61,.4,1.22,.8,1.83,1.2-.19-2.4-.23-4.48-.21-6.15Z"/>
        <path class="cls-4" d="M168.43,63.49c-.69-.13-1.26,.29-1.58,.4-3.83,1.27-6.14,3.82-8.85,6.81-3.95,4.35-4.16,6.65-7.15,10.89-3.15,4.47-6.34,6.8-12.43,11.23-4.25,3.1-10.53,7.1-18.89,10.55-1.02-.91-2.04-1.82-3.06-2.72-6.97,9-10.94,13.2-11.91,12.6-.44-.27-.27-1.52,.51-3.74-3.2,3.67-6.99,8.69-10.38,15.15-3.15,5.98-5.08,11.52-6.3,16,.8-5.13,1.6-10.26,2.4-15.39-.4-3.49-.67-8.74,.37-14.97,.66-3.98,1.76-10.18,6-16.66,2.55-3.9,6.43-9.82,12.64-10.34,2.35-.2,4.34,.44,5.68,1.02,4.74-4.02,7.35-4.47,8.87-4.02,.35,.1,1.47,.49,3.96,1.28,.99,.31,1.81,.57,2.36,.73,1.1-1.54,2.19-3.09,3.29-4.63-4.48-.73-11.13-1.33-19.02-.17-6.47,.95-16.99,2.49-25.87,10.55-8.12,7.37-10.64,16.36-12.26,22.13-4.1,14.63-1.24,26.93,.34,33.36,2.5,10.15,6.63,17.82,9.7,22.64-.06,.55-.18,1.21-.39,1.93-.2,.66-.43,1.23-.66,1.71,.27,.27,.65,.59,1.15,.85,1.4,.71,2.78,.45,3.27,.34,0-.22,.04-.9,.54-1.53,.43-.54,.96-.75,1.18-.83-.15-.56-.33-1.5-.18-2.67,.15-1.16,.56-2.03,.84-2.53-.55-.93-1.22-2.29-1.72-4.02-.44-1.55-.56-2.78-.65-3.73-.04-.48-.19-2.25,.02-4.82,.2-2.4,.33-3.87,.99-5.74,.28-.79,1.29-3.41,3.66-5.9,1.32-1.38,1.77-1.38,3.39-2.91,1.8-1.71,3.01-3.39,3.76-4.57-1.33,2.17-10.43,17.45-4.09,27.43,.55,.87,1.25,1.74,2.13,2.57,0-1.65,.02-4,.13-6.83,.04-1.17,.1-3.2,.24-4.7,.33-3.55,.71-7.55,2.7-12.07,.1-.22,2.31-5.16,6.02-8.99,.78-.81,2.24-2.19,3.85-3.59,1.1-.95,2.04-1.7,2.71-2.23-1.08-.18-2.3-.31-3.65-.34-2.84-.05-5.25,.39-7.09,.89-1.91,1.28-3.82,2.55-5.73,3.83,.76-1.13,1.61-2.28,2.55-3.45,3.39-4.19,7.01-7.33,10.26-9.66,1.89-2.01,4.84-4.89,8.88-7.79,4.06-2.92,6.82-4.13,11.42-6.48,4.53-2.32,13.01-6.69,21.51-12.7,5.62-3.97,9.02-7.09,11.96-11.06,4.46-6.03,5.07-10.26,4.19-11.73-.17-.29-.71-1.19-1.62-1.36Z"/>
        <path class="cls-11" d="M165.29,67.36c1.77-1.16,3.7-1.62,3.7-1.62,.88-.21,1.56-.26,2.3-.3,3.15-.18,5.34-.13,8.51-.21,0,0,1.6-.04,4.04-.38,.56-.08,1.44-.21,2.47-.68,0,0,.6-.27,1.15-.64,1.21-.81,2.66-3.24,3.49-6.64-5.66,2.41-10.4,3.39-13.7,3.83-5.87,.78-8.79,.1-12.91,2.49-2.75,1.6-4.84,3.88-6.46,5.64-1.91,2.09-2.63,3.32-4.94,6.47-2.76,3.77-5.29,6.87-6.47,8.26-2.32,2.71-7.03,8.14-14.53,12.19-2.72,1.47-6.98,3.39-12.71,4.5,2.35-2.35,4.7-4.71,7.05-7.06-4.19,1.27-6.84,3.15-8.51,4.67-2.25,2.05-3.05,3.75-6.97,8.26-1.61,1.85-2.99,3.31-3.92,4.27,.4-1.74,.94-3.66,1.69-5.7,.93-2.56,1.98-4.77,3-6.64-1.8,1.91-3.94,4.34-6.21,7.28-.66,.86-3.43,4.47-6.62,9.7-1.24,2.04-2.46,4.07-3.7,6.57-.42,.85-.87,1.75-1.36,2.92-.83,1.96-1.67,4.38-2.3,7.25,1.59-3.61,3.68-7.65,6.41-11.89,1.87-2.9,3.78-5.47,5.62-7.72v4.79c2.33-2.46,4.7-4.93,7.09-7.4,2.3-2.38,4.59-4.73,6.87-7.06,0,1.7-.01,3.39-.02,5.09,1.87-1.12,4.57-2.77,7.81-4.79,7.04-4.39,10.56-6.58,13.15-8.47,5.3-3.85,10.69-8.46,16.17-15.32,0,0,5.75-8.31,10.81-11.62Z"/>
        <path class="cls-7" d="M139.31,78.74c-1.46-.61-2.72-1.03-3.69-1.32-.99-.3-4.1-1.18-7.99-1.47-.88-.07-1.84-.1-2.35-.12-1.11-.04-2.42-.07-3.9-.07-2.31,.01-6.94,.21-12.35,1.27-4.2,.83-8.78,1.73-13.79,4.66-5.53,3.24-8.66,7.24-10.98,10.21-4.85,6.22-6.99,12.02-8.11,15.13-2.09,5.82-2.72,10.43-3.77,18.02-.69,4.99-1.02,9.18-1.19,12.13-.72-.56-1.53-1.26-2.34-2.13-1.09-1.16-1.89-2.31-2.47-3.28,.42,3,.93,5.47,1.34,7.23,.99,4.27,1.76,7.47,3.71,11.1,1.27,2.36,2.62,4.13,3.57,5.24-.36-1.3-.69-2.71-.96-4.21-.76-4.33-.78-8.23-.51-11.43,1.5,3.89,3.29,8.05,5.43,12.38,2.58,5.24,5.26,9.94,7.88,14.09l.16-4.2c-.48-1.02-1.26-2.65-2.23-4.66-2.87-5.9-3.39-6.69-4.6-9.51-1.24-2.9-2.1-4.95-2.81-7.91-.66-2.79-.87-5.09-1.02-6.81-.08-.89-.24-2.96-.19-7.11,.02-1.93,.07-6.07,.38-9,1.1-10.22,6.8-18.25,8.61-20.75,1.61-2.22,4.13-5.63,8.51-8.93,4.09-3.08,7.76-4.53,10.26-5.49,.54-.21,1.09-.41,1.69-.6,1.81-.59,7.97-2.55,17.79-3.05,4.14-.21,9.55-.21,15.89,.57Z"/>
        <path class="cls-10" d="M118.35,143.8c-.82-.05-1.58,.56-1.66,1.34-.09,.92,.81,1.74,1.72,1.66,.71-.07,1.39-.67,1.4-1.47,.02-.82-.68-1.48-1.47-1.53Z"/>
        <path class="cls-10" d="M97.93,149.42c.13-8.08,3.38-15.93,4.13-17.68-2.38,2.5-4.77,4.99-7.15,7.49-.58,3.11-.72,5.73-.74,7.61-.05,5.02,.78,7.92,1.02,8.71,.52,1.7,1.13,2.68,2.36,4.62,0,0,1.22,1.93,2.13,1.89,.19,0,.3-.11,.3-.11,.1-.1,.12-.23,.13-.28,.04-.35-.27-.67-.3-.7-.39-.43-1.96-5.68-1.87-11.55Z"/>
      </g>
    </g>
  </g>
</svg>